<svg width="30" height="30" viewBox="0 0 30 30" xmlns="http://www.w3.org/2000/svg">
<path fill-rule="evenodd" clip-rule="evenodd" d="M8.48528 19.799L8.48726 19.797L11.3137 16.9706L8.4877 14.1446L8.48528 14.1422C6.92318 12.5801 4.39052 12.5801 2.82843 14.1422C1.26633 15.7043 1.26633 18.2369 2.82843 19.799C4.39052 21.3611 6.92318 21.3611 8.48528 19.799ZM9.89949 21.2132C8.3374 22.7753 8.3374 25.308 9.8995 26.8701C11.4616 28.4322 13.9943 28.4322 15.5563 26.8701L26.8701 15.5564C28.4322 13.9943 28.4322 11.4616 26.8701 9.8995C25.308 8.33741 22.7753 8.33741 21.2132 9.8995L9.89949 21.2132Z" />
</svg>
